<mxfile host="app.diagrams.net" agent="Mozilla/5.0 (Windows NT 10.0; Win64; x64) AppleWebKit/537.36 (KHTML, like Gecko) Chrome/129.0.0.0 Safari/537.36" version="24.7.16">
  <diagram name="Página-1" id="OAwCoKvRLeG-6lFnkmdE">
    <mxGraphModel dx="1434" dy="772" grid="1" gridSize="10" guides="1" tooltips="1" connect="1" arrows="1" fold="1" page="1" pageScale="1" pageWidth="1390" pageHeight="980" math="0" shadow="0">
      <root>
        <mxCell id="0" />
        <mxCell id="1" parent="0" />
        <mxCell id="ihInDmgUmpCt9fiPvuzD-3" value="Veiculo" style="swimlane;fontStyle=1;align=center;verticalAlign=top;childLayout=stackLayout;horizontal=1;startSize=26;horizontalStack=0;resizeParent=1;resizeParentMax=0;resizeLast=0;collapsible=1;marginBottom=0;whiteSpace=wrap;html=1;" parent="1" vertex="1">
          <mxGeometry x="630" y="120" width="190" height="408" as="geometry" />
        </mxCell>
        <mxCell id="ihInDmgUmpCt9fiPvuzD-4" value="&lt;div&gt;+placa: String&lt;/div&gt;&lt;div&gt;+modelo: String&lt;/div&gt;&lt;div&gt;+cor: String&lt;/div&gt;&lt;div&gt;+marca: String&lt;/div&gt;&lt;div&gt;+classificacao: String&lt;/div&gt;&lt;div&gt;+anoFabricacao: int&lt;/div&gt;&lt;div&gt;+tipoCombustivel: String&lt;/div&gt;&lt;div&gt;+tipoTransmissao: String&lt;/div&gt;&lt;div&gt;+quilometragemAtual: float&lt;/div&gt;&lt;div&gt;+status: String (ativo/inativo/manutencao)&lt;/div&gt;&lt;div&gt;+chassi: String&lt;/div&gt;&lt;div&gt;+capacidadeCarga: float&lt;/div&gt;&lt;div&gt;+statusIPVA: boolean&lt;/div&gt;&lt;div&gt;+documentacao: List&amp;lt;Documentacao&amp;gt;&lt;/div&gt;&lt;div&gt;&lt;br&gt;&lt;/div&gt;" style="text;strokeColor=none;fillColor=none;align=left;verticalAlign=top;spacingLeft=4;spacingRight=4;overflow=hidden;rotatable=0;points=[[0,0.5],[1,0.5]];portConstraint=eastwest;whiteSpace=wrap;html=1;" parent="ihInDmgUmpCt9fiPvuzD-3" vertex="1">
          <mxGeometry y="26" width="190" height="254" as="geometry" />
        </mxCell>
        <mxCell id="ihInDmgUmpCt9fiPvuzD-5" value="" style="line;strokeWidth=1;fillColor=none;align=left;verticalAlign=middle;spacingTop=-1;spacingLeft=3;spacingRight=3;rotatable=0;labelPosition=right;points=[];portConstraint=eastwest;strokeColor=inherit;" parent="ihInDmgUmpCt9fiPvuzD-3" vertex="1">
          <mxGeometry y="280" width="190" height="8" as="geometry" />
        </mxCell>
        <mxCell id="ihInDmgUmpCt9fiPvuzD-6" value="&lt;div&gt;+cadastrarVeiculo()&lt;/div&gt;&lt;div&gt;+atualizarDadosVeiculo()&lt;/div&gt;&lt;div&gt;+consultarHistoricoManutencao()&lt;/div&gt;&lt;div&gt;+consultarConsumoCombustivel()&lt;/div&gt;&lt;div&gt;+consultarHistoricoViagens()&lt;/div&gt;&lt;div&gt;+darBaixaVeiculo()&lt;/div&gt;" style="text;strokeColor=none;fillColor=none;align=left;verticalAlign=top;spacingLeft=4;spacingRight=4;overflow=hidden;rotatable=0;points=[[0,0.5],[1,0.5]];portConstraint=eastwest;whiteSpace=wrap;html=1;" parent="ihInDmgUmpCt9fiPvuzD-3" vertex="1">
          <mxGeometry y="288" width="190" height="120" as="geometry" />
        </mxCell>
        <mxCell id="ihInDmgUmpCt9fiPvuzD-7" value="Motorista" style="swimlane;fontStyle=1;align=center;verticalAlign=top;childLayout=stackLayout;horizontal=1;startSize=26;horizontalStack=0;resizeParent=1;resizeParentMax=0;resizeLast=0;collapsible=1;marginBottom=0;whiteSpace=wrap;html=1;" parent="1" vertex="1">
          <mxGeometry x="350" y="120" width="170" height="420" as="geometry" />
        </mxCell>
        <mxCell id="ihInDmgUmpCt9fiPvuzD-8" value="&lt;div&gt;-nome: String&lt;/div&gt;&lt;div&gt;-CPF: String&lt;/div&gt;&lt;div&gt;-CNH: String&lt;/div&gt;&lt;div&gt;-carteiraTrabalho: String&lt;/div&gt;&lt;div&gt;-dataNascimento: Date&lt;/div&gt;&lt;div&gt;-comprovanteResidencia: String&lt;/div&gt;&lt;div&gt;-nacionalidade: String&lt;/div&gt;&lt;div&gt;-estadoCivil: String&lt;/div&gt;&lt;div&gt;-endereco: String&lt;/div&gt;&lt;div&gt;-telefone: String&lt;/div&gt;&lt;div&gt;-email: String&lt;/div&gt;&lt;div&gt;+dataAdmissao: Date&lt;/div&gt;&lt;div&gt;-cargo: String&lt;/div&gt;&lt;div&gt;-salario: float&lt;/div&gt;&lt;div&gt;-jornadaTrabalho: String&lt;/div&gt;&lt;div&gt;-contaBancaria: String&lt;/div&gt;&lt;div&gt;-beneficios: List&amp;lt;Beneficio&amp;gt;&lt;/div&gt;&lt;div&gt;-documentacao: List&amp;lt;Documentacao&amp;gt;&lt;/div&gt;" style="text;strokeColor=none;fillColor=none;align=left;verticalAlign=top;spacingLeft=4;spacingRight=4;overflow=hidden;rotatable=0;points=[[0,0.5],[1,0.5]];portConstraint=eastwest;whiteSpace=wrap;html=1;" parent="ihInDmgUmpCt9fiPvuzD-7" vertex="1">
          <mxGeometry y="26" width="170" height="314" as="geometry" />
        </mxCell>
        <mxCell id="ihInDmgUmpCt9fiPvuzD-9" value="" style="line;strokeWidth=1;fillColor=none;align=left;verticalAlign=middle;spacingTop=-1;spacingLeft=3;spacingRight=3;rotatable=0;labelPosition=right;points=[];portConstraint=eastwest;strokeColor=inherit;" parent="ihInDmgUmpCt9fiPvuzD-7" vertex="1">
          <mxGeometry y="340" width="170" height="8" as="geometry" />
        </mxCell>
        <mxCell id="ihInDmgUmpCt9fiPvuzD-10" value="&lt;div&gt;+cadastrarMotorista()&lt;/div&gt;&lt;div&gt;+atualizarDadosMotorista()&lt;/div&gt;&lt;div&gt;+consultarHistoricoMotorista()&lt;/div&gt;&lt;div&gt;+consultarInfrações()&lt;/div&gt;" style="text;strokeColor=none;fillColor=none;align=left;verticalAlign=top;spacingLeft=4;spacingRight=4;overflow=hidden;rotatable=0;points=[[0,0.5],[1,0.5]];portConstraint=eastwest;whiteSpace=wrap;html=1;" parent="ihInDmgUmpCt9fiPvuzD-7" vertex="1">
          <mxGeometry y="348" width="170" height="72" as="geometry" />
        </mxCell>
        <mxCell id="ihInDmgUmpCt9fiPvuzD-15" value="Rota" style="swimlane;fontStyle=1;align=center;verticalAlign=top;childLayout=stackLayout;horizontal=1;startSize=26;horizontalStack=0;resizeParent=1;resizeParentMax=0;resizeLast=0;collapsible=1;marginBottom=0;whiteSpace=wrap;html=1;" parent="1" vertex="1">
          <mxGeometry x="930" y="150" width="160" height="240" as="geometry" />
        </mxCell>
        <mxCell id="ihInDmgUmpCt9fiPvuzD-16" value="&lt;div&gt;+enderecoColeta: String&lt;/div&gt;&lt;div&gt;+enderecoDestino: String&lt;/div&gt;&lt;div&gt;+rota: String&lt;/div&gt;&lt;div&gt;+tempoEstimado: float&lt;/div&gt;&lt;div&gt;+prazo: Date&lt;/div&gt;&lt;div&gt;+carga: String&lt;/div&gt;&lt;div&gt;+veiculo: Veiculo&lt;/div&gt;&lt;div&gt;+motorista: Motorista&lt;/div&gt;" style="text;strokeColor=none;fillColor=none;align=left;verticalAlign=top;spacingLeft=4;spacingRight=4;overflow=hidden;rotatable=0;points=[[0,0.5],[1,0.5]];portConstraint=eastwest;whiteSpace=wrap;html=1;" parent="ihInDmgUmpCt9fiPvuzD-15" vertex="1">
          <mxGeometry y="26" width="160" height="144" as="geometry" />
        </mxCell>
        <mxCell id="ihInDmgUmpCt9fiPvuzD-17" value="" style="line;strokeWidth=1;fillColor=none;align=left;verticalAlign=middle;spacingTop=-1;spacingLeft=3;spacingRight=3;rotatable=0;labelPosition=right;points=[];portConstraint=eastwest;strokeColor=inherit;" parent="ihInDmgUmpCt9fiPvuzD-15" vertex="1">
          <mxGeometry y="170" width="160" height="8" as="geometry" />
        </mxCell>
        <mxCell id="ihInDmgUmpCt9fiPvuzD-18" value="&lt;div&gt;+planejarRota()&lt;/div&gt;&lt;div&gt;+monitorarLocalizacao()&lt;/div&gt;&lt;div&gt;+gerarRelatorioRota()&lt;/div&gt;&lt;div&gt;&lt;br&gt;&lt;/div&gt;" style="text;strokeColor=none;fillColor=none;align=left;verticalAlign=top;spacingLeft=4;spacingRight=4;overflow=hidden;rotatable=0;points=[[0,0.5],[1,0.5]];portConstraint=eastwest;whiteSpace=wrap;html=1;" parent="ihInDmgUmpCt9fiPvuzD-15" vertex="1">
          <mxGeometry y="178" width="160" height="62" as="geometry" />
        </mxCell>
        <mxCell id="ihInDmgUmpCt9fiPvuzD-19" value="Manutencao" style="swimlane;fontStyle=1;align=center;verticalAlign=top;childLayout=stackLayout;horizontal=1;startSize=26;horizontalStack=0;resizeParent=1;resizeParentMax=0;resizeLast=0;collapsible=1;marginBottom=0;whiteSpace=wrap;html=1;" parent="1" vertex="1">
          <mxGeometry x="840" y="600" width="160" height="200" as="geometry" />
        </mxCell>
        <mxCell id="ihInDmgUmpCt9fiPvuzD-20" value="&lt;div&gt;+descricao: String&lt;/div&gt;&lt;div&gt;+dataManutencao: Date&lt;/div&gt;&lt;div&gt;+autoMecanicaResponsavel: String&lt;/div&gt;&lt;div&gt;+veiculo: Veiculo&lt;/div&gt;&lt;div&gt;+custos: List&amp;lt;Custo&amp;gt;&lt;/div&gt;" style="text;strokeColor=none;fillColor=none;align=left;verticalAlign=top;spacingLeft=4;spacingRight=4;overflow=hidden;rotatable=0;points=[[0,0.5],[1,0.5]];portConstraint=eastwest;whiteSpace=wrap;html=1;" parent="ihInDmgUmpCt9fiPvuzD-19" vertex="1">
          <mxGeometry y="26" width="160" height="104" as="geometry" />
        </mxCell>
        <mxCell id="ihInDmgUmpCt9fiPvuzD-21" value="" style="line;strokeWidth=1;fillColor=none;align=left;verticalAlign=middle;spacingTop=-1;spacingLeft=3;spacingRight=3;rotatable=0;labelPosition=right;points=[];portConstraint=eastwest;strokeColor=inherit;" parent="ihInDmgUmpCt9fiPvuzD-19" vertex="1">
          <mxGeometry y="130" width="160" height="8" as="geometry" />
        </mxCell>
        <mxCell id="ihInDmgUmpCt9fiPvuzD-22" value="&lt;div&gt;+registrarManutencao()&lt;/div&gt;&lt;div&gt;+agendarManutencao()&lt;/div&gt;&lt;div&gt;+gerarRelatorioCustos()&lt;/div&gt;&lt;div&gt;&lt;br&gt;&lt;/div&gt;" style="text;strokeColor=none;fillColor=none;align=left;verticalAlign=top;spacingLeft=4;spacingRight=4;overflow=hidden;rotatable=0;points=[[0,0.5],[1,0.5]];portConstraint=eastwest;whiteSpace=wrap;html=1;" parent="ihInDmgUmpCt9fiPvuzD-19" vertex="1">
          <mxGeometry y="138" width="160" height="62" as="geometry" />
        </mxCell>
        <mxCell id="ihInDmgUmpCt9fiPvuzD-23" value="Abastecimento" style="swimlane;fontStyle=1;align=center;verticalAlign=top;childLayout=stackLayout;horizontal=1;startSize=26;horizontalStack=0;resizeParent=1;resizeParentMax=0;resizeLast=0;collapsible=1;marginBottom=0;whiteSpace=wrap;html=1;" parent="1" vertex="1">
          <mxGeometry x="420" y="620" width="160" height="160" as="geometry" />
        </mxCell>
        <mxCell id="ihInDmgUmpCt9fiPvuzD-24" value="&lt;div&gt;+dataAbastecimento: Date&lt;/div&gt;&lt;div&gt;+custo: float&lt;/div&gt;&lt;div&gt;+veiculo: Veiculo&lt;/div&gt;" style="text;strokeColor=none;fillColor=none;align=left;verticalAlign=top;spacingLeft=4;spacingRight=4;overflow=hidden;rotatable=0;points=[[0,0.5],[1,0.5]];portConstraint=eastwest;whiteSpace=wrap;html=1;" parent="ihInDmgUmpCt9fiPvuzD-23" vertex="1">
          <mxGeometry y="26" width="160" height="64" as="geometry" />
        </mxCell>
        <mxCell id="ihInDmgUmpCt9fiPvuzD-25" value="" style="line;strokeWidth=1;fillColor=none;align=left;verticalAlign=middle;spacingTop=-1;spacingLeft=3;spacingRight=3;rotatable=0;labelPosition=right;points=[];portConstraint=eastwest;strokeColor=inherit;" parent="ihInDmgUmpCt9fiPvuzD-23" vertex="1">
          <mxGeometry y="90" width="160" height="8" as="geometry" />
        </mxCell>
        <mxCell id="ihInDmgUmpCt9fiPvuzD-26" value="&lt;div&gt;+registrarAbastecimento()&lt;/div&gt;&lt;div&gt;+calcularConsumoMedio()&lt;/div&gt;&lt;div&gt;+gerarRelatorioConsumo()&lt;/div&gt;" style="text;strokeColor=none;fillColor=none;align=left;verticalAlign=top;spacingLeft=4;spacingRight=4;overflow=hidden;rotatable=0;points=[[0,0.5],[1,0.5]];portConstraint=eastwest;whiteSpace=wrap;html=1;" parent="ihInDmgUmpCt9fiPvuzD-23" vertex="1">
          <mxGeometry y="98" width="160" height="62" as="geometry" />
        </mxCell>
        <mxCell id="ihInDmgUmpCt9fiPvuzD-27" value="Documentacao" style="swimlane;fontStyle=1;align=center;verticalAlign=top;childLayout=stackLayout;horizontal=1;startSize=26;horizontalStack=0;resizeParent=1;resizeParentMax=0;resizeLast=0;collapsible=1;marginBottom=0;whiteSpace=wrap;html=1;" parent="1" vertex="1">
          <mxGeometry x="20" y="160" width="160" height="180" as="geometry" />
        </mxCell>
        <mxCell id="ihInDmgUmpCt9fiPvuzD-28" value="&lt;div&gt;+tipo: String (CNH, Licenciamento, Seguro, etc.)&lt;/div&gt;&lt;div&gt;+dataVencimento: Date&lt;/div&gt;&lt;div&gt;+arquivo: String (URL do documento)&lt;/div&gt;" style="text;strokeColor=none;fillColor=none;align=left;verticalAlign=top;spacingLeft=4;spacingRight=4;overflow=hidden;rotatable=0;points=[[0,0.5],[1,0.5]];portConstraint=eastwest;whiteSpace=wrap;html=1;" parent="ihInDmgUmpCt9fiPvuzD-27" vertex="1">
          <mxGeometry y="26" width="160" height="104" as="geometry" />
        </mxCell>
        <mxCell id="ihInDmgUmpCt9fiPvuzD-29" value="" style="line;strokeWidth=1;fillColor=none;align=left;verticalAlign=middle;spacingTop=-1;spacingLeft=3;spacingRight=3;rotatable=0;labelPosition=right;points=[];portConstraint=eastwest;strokeColor=inherit;" parent="ihInDmgUmpCt9fiPvuzD-27" vertex="1">
          <mxGeometry y="130" width="160" height="8" as="geometry" />
        </mxCell>
        <mxCell id="ihInDmgUmpCt9fiPvuzD-30" value="&lt;div&gt;+armazenarDocumento()&lt;/div&gt;&lt;div&gt;+notificarVencimento()&lt;/div&gt;" style="text;strokeColor=none;fillColor=none;align=left;verticalAlign=top;spacingLeft=4;spacingRight=4;overflow=hidden;rotatable=0;points=[[0,0.5],[1,0.5]];portConstraint=eastwest;whiteSpace=wrap;html=1;" parent="ihInDmgUmpCt9fiPvuzD-27" vertex="1">
          <mxGeometry y="138" width="160" height="42" as="geometry" />
        </mxCell>
        <mxCell id="HvLADvNxZvDGXhyXcmTk-3" value="" style="endArrow=diamondThin;endFill=1;endSize=24;html=1;rounded=0;entryX=-0.019;entryY=0.808;entryDx=0;entryDy=0;entryPerimeter=0;" parent="1" target="ihInDmgUmpCt9fiPvuzD-20" edge="1">
          <mxGeometry width="160" relative="1" as="geometry">
            <mxPoint x="724" y="530" as="sourcePoint" />
            <mxPoint x="290" y="598.05" as="targetPoint" />
            <Array as="points">
              <mxPoint x="724" y="610" />
              <mxPoint x="724" y="710" />
            </Array>
          </mxGeometry>
        </mxCell>
        <mxCell id="HvLADvNxZvDGXhyXcmTk-19" value="1" style="edgeLabel;html=1;align=center;verticalAlign=middle;resizable=0;points=[];" parent="HvLADvNxZvDGXhyXcmTk-3" vertex="1" connectable="0">
          <mxGeometry x="-0.9459" y="-3" relative="1" as="geometry">
            <mxPoint as="offset" />
          </mxGeometry>
        </mxCell>
        <mxCell id="HvLADvNxZvDGXhyXcmTk-20" value="0..*" style="edgeLabel;html=1;align=center;verticalAlign=middle;resizable=0;points=[];" parent="HvLADvNxZvDGXhyXcmTk-3" vertex="1" connectable="0">
          <mxGeometry x="0.8817" y="-1" relative="1" as="geometry">
            <mxPoint x="-12" as="offset" />
          </mxGeometry>
        </mxCell>
        <mxCell id="HvLADvNxZvDGXhyXcmTk-4" value="" style="endArrow=diamondThin;endFill=0;endSize=24;html=1;rounded=0;entryX=0.988;entryY=1;entryDx=0;entryDy=0;entryPerimeter=0;" parent="1" target="ihInDmgUmpCt9fiPvuzD-24" edge="1">
          <mxGeometry width="160" relative="1" as="geometry">
            <mxPoint x="700" y="530" as="sourcePoint" />
            <mxPoint x="350" y="780" as="targetPoint" />
            <Array as="points">
              <mxPoint x="700" y="600" />
              <mxPoint x="700" y="640" />
              <mxPoint x="700" y="710" />
            </Array>
          </mxGeometry>
        </mxCell>
        <mxCell id="HvLADvNxZvDGXhyXcmTk-17" value="0..*" style="edgeLabel;html=1;align=center;verticalAlign=middle;resizable=0;points=[];" parent="HvLADvNxZvDGXhyXcmTk-4" vertex="1" connectable="0">
          <mxGeometry x="-0.9633" relative="1" as="geometry">
            <mxPoint y="9" as="offset" />
          </mxGeometry>
        </mxCell>
        <mxCell id="HvLADvNxZvDGXhyXcmTk-18" value="0..*" style="edgeLabel;html=1;align=center;verticalAlign=middle;resizable=0;points=[];" parent="HvLADvNxZvDGXhyXcmTk-4" vertex="1" connectable="0">
          <mxGeometry x="0.8765" y="2" relative="1" as="geometry">
            <mxPoint x="13" as="offset" />
          </mxGeometry>
        </mxCell>
        <mxCell id="HvLADvNxZvDGXhyXcmTk-5" style="edgeStyle=orthogonalEdgeStyle;rounded=0;orthogonalLoop=1;jettySize=auto;html=1;exitX=1;exitY=0.5;exitDx=0;exitDy=0;entryX=0;entryY=0.861;entryDx=0;entryDy=0;entryPerimeter=0;endArrow=none;endFill=0;" parent="1" target="ihInDmgUmpCt9fiPvuzD-16" edge="1">
          <mxGeometry relative="1" as="geometry">
            <mxPoint x="820" y="300" as="sourcePoint" />
            <mxPoint x="920" y="300" as="targetPoint" />
          </mxGeometry>
        </mxCell>
        <mxCell id="HvLADvNxZvDGXhyXcmTk-15" value="0..*" style="edgeLabel;html=1;align=center;verticalAlign=middle;resizable=0;points=[];" parent="HvLADvNxZvDGXhyXcmTk-5" vertex="1" connectable="0">
          <mxGeometry x="0.5475" y="2" relative="1" as="geometry">
            <mxPoint as="offset" />
          </mxGeometry>
        </mxCell>
        <mxCell id="HvLADvNxZvDGXhyXcmTk-16" value="0..*" style="edgeLabel;html=1;align=center;verticalAlign=middle;resizable=0;points=[];" parent="HvLADvNxZvDGXhyXcmTk-5" vertex="1" connectable="0">
          <mxGeometry x="-0.7104" relative="1" as="geometry">
            <mxPoint as="offset" />
          </mxGeometry>
        </mxCell>
        <mxCell id="HvLADvNxZvDGXhyXcmTk-12" style="edgeStyle=orthogonalEdgeStyle;rounded=0;orthogonalLoop=1;jettySize=auto;html=1;entryX=-0.011;entryY=0.618;entryDx=0;entryDy=0;entryPerimeter=0;endArrow=none;endFill=0;" parent="1" source="ihInDmgUmpCt9fiPvuzD-8" target="ihInDmgUmpCt9fiPvuzD-4" edge="1">
          <mxGeometry relative="1" as="geometry" />
        </mxCell>
        <mxCell id="HvLADvNxZvDGXhyXcmTk-13" value="1" style="edgeLabel;html=1;align=center;verticalAlign=middle;resizable=0;points=[];" parent="HvLADvNxZvDGXhyXcmTk-12" vertex="1" connectable="0">
          <mxGeometry x="-0.7776" relative="1" as="geometry">
            <mxPoint as="offset" />
          </mxGeometry>
        </mxCell>
        <mxCell id="HvLADvNxZvDGXhyXcmTk-14" value="0..1" style="edgeLabel;html=1;align=center;verticalAlign=middle;resizable=0;points=[];" parent="HvLADvNxZvDGXhyXcmTk-12" vertex="1" connectable="0">
          <mxGeometry x="0.7607" y="-1" relative="1" as="geometry">
            <mxPoint as="offset" />
          </mxGeometry>
        </mxCell>
        <mxCell id="HvLADvNxZvDGXhyXcmTk-27" value="" style="endArrow=diamondThin;endFill=0;endSize=24;html=1;rounded=0;" parent="1" edge="1">
          <mxGeometry width="160" relative="1" as="geometry">
            <mxPoint x="350" y="269.5" as="sourcePoint" />
            <mxPoint x="182" y="271" as="targetPoint" />
            <Array as="points" />
          </mxGeometry>
        </mxCell>
        <mxCell id="HvLADvNxZvDGXhyXcmTk-28" value="1" style="edgeLabel;html=1;align=center;verticalAlign=middle;resizable=0;points=[];" parent="HvLADvNxZvDGXhyXcmTk-27" vertex="1" connectable="0">
          <mxGeometry x="-0.7857" y="-2" relative="1" as="geometry">
            <mxPoint as="offset" />
          </mxGeometry>
        </mxCell>
        <mxCell id="HvLADvNxZvDGXhyXcmTk-30" value="0..*" style="edgeLabel;html=1;align=center;verticalAlign=middle;resizable=0;points=[];" parent="HvLADvNxZvDGXhyXcmTk-27" vertex="1" connectable="0">
          <mxGeometry x="0.512" y="1" relative="1" as="geometry">
            <mxPoint as="offset" />
          </mxGeometry>
        </mxCell>
      </root>
    </mxGraphModel>
  </diagram>
</mxfile>
